<svg width="760" height="480" viewBox="0 0 760 480" xmlns="http://www.w3.org/2000/svg" role="img" aria-hidden="true">
  <rect width="760" height="480" fill="#FAF6EE"/>
  <circle cx="700" cy="428" r="120" fill="#E8A87C" opacity="0.22"/>
  <circle cx="52" cy="40" r="90" fill="#E6DECE" opacity="0.35"/>

    <rect x="128" y="130" width="150" height="210" rx="14" fill="#FFFFFF" stroke="#1B1712" stroke-width="3"/>
    <circle cx="158" cy="176" r="10" fill="#C94F1C"/><rect x="180" y="170" width="70" height="12" rx="6" fill="#E6DECE"/>
    <circle cx="158" cy="216" r="10" fill="#C94F1C"/><rect x="180" y="210" width="60" height="12" rx="6" fill="#E6DECE"/>
    <circle cx="158" cy="256" r="10" fill="#C94F1C"/><rect x="180" y="250" width="66" height="12" rx="6" fill="#E6DECE"/>
    <rect x="306" y="130" width="150" height="210" rx="14" fill="#FFFFFF" stroke="#1B1712" stroke-width="3"/>
    <rect x="330" y="164" width="44" height="30" rx="8" fill="#E8A87C"/>
    <path d="M 374 179 h 34" stroke="#1B1712" stroke-width="3"/>
    <rect x="408" y="164" width="30" height="30" rx="8" fill="#E6DECE"/>
    <rect x="330" y="240" width="30" height="30" rx="8" fill="#E6DECE"/>
    <path d="M 360 255 h 40" stroke="#1B1712" stroke-width="3"/>
    <rect x="400" y="240" width="38" height="30" rx="8" fill="#E8A87C"/>
    <rect x="484" y="130" width="150" height="210" rx="14" fill="#1B1712"/>
    <path d="M 512 180 l 20 18 l -20 18" stroke="#E8A87C" stroke-width="5" fill="none" stroke-linecap="round" stroke-linejoin="round"/>
    <rect x="544" y="192" width="60" height="10" rx="5" fill="#FAF6EE" opacity="0.7"/>
    <rect x="512" y="240" width="92" height="10" rx="5" fill="#FAF6EE" opacity="0.4"/>
</svg>